<?xml version="1.0" encoding="utf-8"?>
<!-- Generator: Adobe Illustrator 25.2.0, SVG Export Plug-In . SVG Version: 6.00 Build 0)  -->
<svg version="1.1" id="Layer_1" xmlns="http://www.w3.org/2000/svg" xmlns:xlink="http://www.w3.org/1999/xlink" x="0px" y="0px"
	 viewBox="0 0 377.8 100.6" style="enable-background:new 0 0 377.8 100.6;" xml:space="preserve">
<style type="text/css">
	.st0{fill:#FFFFFF;}
</style>
<g>
	<g>
		<g>
			<polygon class="st0" points="110.9,53.2 81.3,82.8 69.5,82.8 57.7,94.6 86.2,94.6 127.5,53.2 			"/>
		</g>
		<g>
			<polygon class="st0" points="62.4,53.2 50.6,65 63.6,65 50.6,77.9 25.9,53.2 9.3,53.2 50.6,94.6 91.9,53.2 			"/>
		</g>
	</g>
</g>
<polygon class="st0" points="86.2,6.9 68.4,24.6 50.6,6.9 9.3,48.2 25.9,48.2 50.6,23.5 60.1,33 44.8,48.2 61.4,48.2 86.2,23.5 
	110.9,48.2 127.5,48.2 "/>
<path class="st0" d="M176.5,53.6h-13.1c-1.5,0-2.8-0.5-3.9-1.5c-1.1-1-1.6-2.3-1.6-3.8v-6.2c0-1.5,0.5-2.8,1.6-3.8
	c1.1-1,2.4-1.5,3.9-1.5h10c1.7,0,3.1,1.4,3.1,3.1v0.9h-13.1c-1.1,0-1.6,0.5-1.6,1.4v6.2c0,0.9,0.5,1.4,1.6,1.4h9.2V47h-5.4v-3.9h9.3
	V53.6z"/>
<path class="st0" d="M202.7,53.6h-4V43.2l-7.1,10.1l-7.1-10.1v10.4h-4V39.7c0-1.7,1.4-3.1,3.1-3.1h1.1l6.9,9.8l6.9-9.8h4.1V53.6z"/>
<path class="st0" d="M231,53.6h-4V47h-10.2v6.5h-4V39.7c0-1.7,1.4-3.1,3.1-3.1h0.9v6.5h10.2v-6.5h4V53.6z"/>
<path class="st0" d="M256.2,48.2c0,1.5-0.5,2.8-1.6,3.8c-1.1,1-2.4,1.5-3.9,1.5h-10c-1.5,0-2.8-0.5-3.9-1.5c-1.1-1-1.6-2.3-1.6-3.8
	v-6.2c0-1.5,0.5-2.8,1.6-3.8c1.1-1,2.4-1.5,3.9-1.5h10c1.5,0,2.8,0.5,3.9,1.5c1.1,1,1.6,2.3,1.6,3.8V48.2z M252.2,41.9
	c0-0.9-0.5-1.4-1.6-1.4h-10c-1.1,0-1.6,0.5-1.6,1.4v6.2c0,0.9,0.5,1.4,1.6,1.4h10c1.1,0,1.6-0.5,1.6-1.4V41.9z"/>
<path class="st0" d="M271,53.6h-10.7V39.7c0-1.7,1.4-3.1,3.1-3.1h0.9v13h6.8V53.6z"/>
<path class="st0" d="M293.6,48.2c0,1.5-0.5,2.8-1.6,3.8c-1.1,1-2.4,1.5-3.9,1.5H275v-17h13.1c1.5,0,2.8,0.5,3.9,1.6
	c1.1,1.1,1.6,2.3,1.6,3.8V48.2z M278.9,40.5v9.1h9.1c1,0,1.5-0.5,1.5-1.4v-6.2c0-0.9-0.5-1.4-1.5-1.4H278.9z"/>
<path class="st0" d="M301.5,53.6h-4V39.7c0-1.7,1.4-3.1,3.1-3.1h0.9V53.6z"/>
<path class="st0" d="M324,53.6h-3.9l-10.2-11.4v11.4h-4v-17h4l10.2,11.3v-8.3c0-1.7,1.4-3.1,3.1-3.1h0.8V53.6z"/>
<path class="st0" d="M346.6,53.6h-13.1c-1.5,0-2.8-0.5-3.9-1.5c-1.1-1-1.6-2.3-1.6-3.8v-6.2c0-1.5,0.5-2.8,1.6-3.8
	c1.1-1,2.4-1.5,3.9-1.5h10c1.7,0,3.1,1.4,3.1,3.1v0.9h-13.1c-1.1,0-1.6,0.5-1.6,1.4v6.2c0,0.9,0.5,1.4,1.6,1.4h9.2V47h-5.4v-3.9h9.3
	V53.6z"/>
<path class="st0" d="M369.1,52c-0.9,1-2.1,1.5-3.4,1.5H351v-2.4c0-0.8,0.7-1.5,1.5-1.5h13.1c0.5,0,0.8-0.4,0.8-1.3
	c0-0.9-0.3-1.3-0.8-1.3H355c-1.4,0-2.5-0.5-3.4-1.5c-0.9-1-1.4-2.2-1.4-3.7c0-1.4,0.4-2.7,1.3-3.7c0.9-1.1,2.1-1.6,3.5-1.6h11.5
	c1.7,0,3.1,1.4,3.1,3.1v0.9H355c-0.5,0-0.8,0.4-0.8,1.3c0,0.8,0.3,1.3,0.8,1.3h10.7c1.4,0,2.5,0.5,3.4,1.5c0.9,1,1.3,2.2,1.3,3.7
	C370.5,49.8,370,51,369.1,52z"/>
<g>
	<g>
		<polygon class="st0" points="172.5,68.3 174.9,68.3 171.2,65.2 171.3,65.1 174.4,62.3 172.3,62.3 169.3,65.2 		"/>
		<polygon class="st0" points="169.6,62.3 168,62.3 168,68.3 169.6,68.3 169.6,65.2 169.6,65.2 169.6,65.1 		"/>
	</g>
	<polygon class="st0" points="185.5,68.3 185.5,62.3 183.8,62.3 183.8,64.5 179.8,64.5 179.8,62.3 178.2,62.3 178.2,68.3 
		179.8,68.3 179.8,66 183.8,66 183.8,68.3 	"/>
	<path class="st0" d="M195.5,68.1c0.1-0.1,0.3-0.2,0.4-0.3c0.1-0.1,0.2-0.3,0.3-0.4c0.1-0.2,0.1-0.4,0.1-0.6v-3c0-0.2,0-0.4-0.1-0.6
		c0-0.1-0.1-0.2-0.2-0.3l0,0l0.5-0.9v-1.2h-1.1v1.1h0.4l-0.2,0.6l-0.1,0c-0.1-0.1-0.3-0.1-0.5-0.1c-0.2,0-0.5-0.1-0.8-0.1
		c-0.3,0-0.9,0-1.5,0s-1.2,0-1.5,0c-0.3,0-0.6,0-0.8,0.1c-0.2,0-0.4,0.1-0.6,0.2c-0.1,0.1-0.3,0.2-0.4,0.3c-0.1,0.1-0.2,0.3-0.3,0.4
		c-0.1,0.2-0.1,0.4-0.1,0.6v3c0,0.2,0,0.5,0.1,0.6c0,0.2,0.1,0.3,0.3,0.4c0.1,0.1,0.3,0.2,0.4,0.3c0.1,0.1,0.3,0.1,0.6,0.2
		c0.2,0,0.5,0.1,0.9,0.1c0.3,0,0.8,0,1.5,0c0.7,0,1.2,0,1.5,0c0.3,0,0.6,0,0.9-0.1C195.2,68.2,195.4,68.2,195.5,68.1z M194.9,66.5
		c0,0.1-0.1,0.2-0.2,0.3c-0.1,0.1-0.3,0.1-0.5,0.1h-3.3c-0.2,0-0.4,0-0.5-0.1c-0.1-0.1-0.1-0.2-0.1-0.3V64c0-0.1,0.1-0.3,0.1-0.3
		c0.1-0.1,0.2-0.1,0.5-0.1h3.3c0.2,0,0.4,0,0.5,0.1c0.1,0.1,0.1,0.2,0.1,0.4V66.5z"/>
	<rect x="199.7" y="62.3" class="st0" width="1.6" height="6"/>
	<polygon class="st0" points="216.2,68.3 219,68.3 219,62.3 217.5,62.3 217.5,67.3 217.3,66.8 213.9,62.3 211,62.3 211,68.3 
		212.6,68.3 212.6,63.2 212.8,63.7 	"/>
	<path class="st0" d="M222.9,62.7c-0.3,0.3-0.4,0.7-0.4,1.2v2.9c0,0.3,0,0.5,0.1,0.6c0,0.2,0.1,0.3,0.3,0.4c0.1,0.1,0.3,0.2,0.4,0.3
		c0.1,0.1,0.3,0.1,0.5,0.2c0.2,0,0.5,0.1,0.8,0.1c0.3,0,0.8,0,1.5,0c0.6,0,1.1,0,1.5,0c0.3,0,0.6,0,0.8-0.1c0.2,0,0.4-0.1,0.6-0.2
		c0.1-0.1,0.3-0.2,0.4-0.3c0.1-0.1,0.2-0.3,0.3-0.4c0-0.2,0.1-0.4,0.1-0.6v-2H226v1h2.2v0.8c0,0.1-0.1,0.2-0.2,0.3
		c-0.1,0.1-0.3,0.1-0.5,0.1h-3.1c-0.2,0-0.4,0-0.5-0.1c-0.1-0.1-0.1-0.2-0.1-0.4V64c0-0.1,0.1-0.2,0.2-0.3c0.1-0.1,0.2-0.1,0.5-0.1
		h5.1v-1.4h-5.3C223.6,62.3,223.2,62.4,222.9,62.7z"/>
	<path class="st0" d="M233.4,67.8c0.2,0.1,0.3,0.3,0.4,0.3c0.1,0.1,0.3,0.1,0.4,0.2c0.2,0,0.5,0.1,0.8,0.1c0.3,0,0.9,0,1.6,0
		c0.7,0,1.2,0,1.6,0c0.3,0,0.6,0,0.8-0.1c0.2,0,0.3-0.1,0.4-0.1c0.1-0.1,0.2-0.2,0.4-0.3c0.1-0.2,0.2-0.3,0.3-0.5
		c0.1-0.2,0.1-0.4,0.1-0.7v-4.3h-1.6v4.1c0,0.1-0.1,0.3-0.2,0.4c-0.1,0.1-0.3,0.1-0.5,0.1h-2.6c-0.2,0-0.4,0-0.5-0.1
		c-0.1-0.1-0.2-0.2-0.2-0.4v-4.1H233v4.3c0,0.3,0,0.5,0.1,0.7C233.1,67.5,233.2,67.6,233.4,67.8z"/>
	<g>
		<polygon class="st0" points="247.3,61 248.9,61.9 249.1,61.4 247.3,60.3 245.4,61.4 245.7,61.9 		"/>
		<path class="st0" d="M243.9,62.7c-0.1,0.1-0.2,0.3-0.3,0.4c-0.1,0.2-0.1,0.4-0.1,0.6v3c0,0.2,0,0.5,0.1,0.6c0,0.2,0.1,0.3,0.3,0.4
			c0.1,0.1,0.3,0.2,0.4,0.3c0.1,0.1,0.3,0.1,0.6,0.2c0.2,0,0.5,0.1,0.9,0.1c0.3,0,0.8,0,1.5,0c0.7,0,1.2,0,1.5,0
			c0.3,0,0.6,0,0.9-0.1c0.2,0,0.4-0.1,0.6-0.2c0.1-0.1,0.3-0.2,0.4-0.3c0.1-0.1,0.2-0.3,0.3-0.4c0.1-0.2,0.1-0.4,0.1-0.6v-3
			c0-0.2,0-0.4-0.1-0.6c0-0.2-0.1-0.3-0.3-0.4c-0.1-0.1-0.3-0.2-0.4-0.3c-0.1-0.1-0.3-0.1-0.6-0.2c-0.2,0-0.5-0.1-0.8-0.1
			c-0.3,0-0.9,0-1.5,0c-0.7,0-1.2,0-1.5,0c-0.3,0-0.6,0-0.8,0.1c-0.2,0-0.4,0.1-0.6,0.2C244.2,62.5,244,62.6,243.9,62.7z M245,64
			c0-0.1,0.1-0.3,0.1-0.3c0.1-0.1,0.2-0.1,0.5-0.1h3.3c0.2,0,0.4,0,0.5,0.1c0.1,0.1,0.1,0.2,0.1,0.4v2.5c0,0.1-0.1,0.2-0.2,0.3
			c-0.1,0.1-0.3,0.1-0.5,0.1h-3.3c-0.2,0-0.4,0-0.5-0.1c-0.1-0.1-0.1-0.2-0.1-0.3V64z"/>
		<polygon class="st0" points="248.3,60.4 248.5,59.8 246.8,59 246.5,59.7 		"/>
	</g>
	<polygon class="st0" points="259.6,68.3 262.4,68.3 262.4,62.3 260.8,62.3 260.8,67.3 260.6,66.8 257.2,62.3 254.4,62.3 
		254.4,68.3 255.9,68.3 255.9,63.2 256.1,63.7 	"/>
	<polygon class="st0" points="279.3,68.3 279.3,62.3 277.7,62.3 277.7,64.5 273.7,64.5 273.7,62.3 272,62.3 272,68.3 273.7,68.3 
		273.7,66 277.7,66 277.7,68.3 	"/>
	<g>
		<rect x="286.2" y="69" class="st0" width="1.4" height="0.9"/>
		<path class="st0" d="M288.8,67.2l0.5,1.1h1.8l-3.1-6h-2.2l-3.1,6h1.8l0.5-1.1H288.8z M286.9,63.5l1.3,2.5h-2.5L286.9,63.5z"/>
	</g>
	<polygon class="st0" points="299.4,68.3 302.2,68.3 302.2,62.3 300.7,62.3 300.7,67.3 300.5,66.8 297,62.3 294.2,62.3 294.2,68.3 
		295.7,68.3 295.7,63.2 295.9,63.7 	"/>
	<polygon class="st0" points="312.9,68.3 312.9,62.3 311.3,62.3 311.3,64.5 307.2,64.5 307.2,62.3 305.6,62.3 305.6,68.3 
		307.2,68.3 307.2,66 311.3,66 311.3,68.3 	"/>
	<path class="st0" d="M327.4,66.3c0.6,0,1.1-0.2,1.4-0.5c0.3-0.4,0.4-0.9,0.4-1.7c0-0.4,0-0.7-0.1-0.9c-0.1-0.2-0.2-0.4-0.4-0.6
		c-0.2-0.1-0.4-0.2-0.6-0.3c-0.3-0.1-0.6-0.1-1-0.1h-4.6v6h1.6v-4.6h2.8c0.2,0,0.4,0.1,0.5,0.2c0.2,0.1,0.2,0.3,0.2,0.5
		c0,0.2-0.1,0.4-0.2,0.6c-0.2,0.1-0.3,0.2-0.5,0.2h-2.2l1.3,1.2H327.4z"/>
	<polygon class="st0" points="339.7,68.3 339.7,62.3 338.1,62.3 338.1,64.5 334,64.5 334,62.3 332.4,62.3 332.4,68.3 334,68.3 
		334,66 338.1,66 338.1,68.3 	"/>
	<g>
		<polygon class="st0" points="347.8,61.2 347.5,60.5 345.8,61.2 346,61.8 		"/>
		<path class="st0" d="M343.5,67.8c0.2,0.1,0.3,0.3,0.4,0.3c0.1,0.1,0.3,0.1,0.4,0.2c0.2,0,0.5,0.1,0.8,0.1c0.3,0,0.9,0,1.6,0
			c0.7,0,1.2,0,1.6,0c0.3,0,0.6,0,0.8-0.1c0.2,0,0.3-0.1,0.4-0.1c0.1-0.1,0.2-0.2,0.4-0.3c0.1-0.2,0.2-0.3,0.3-0.5
			c0.1-0.2,0.1-0.4,0.1-0.7v-4.3h-1.6v4.1c0,0.1-0.1,0.3-0.2,0.4c-0.1,0.1-0.3,0.1-0.5,0.1h-2.6c-0.2,0-0.4,0-0.5-0.1
			c-0.1-0.1-0.2-0.2-0.2-0.4v-4.1h-1.6v4.3c0,0.3,0,0.5,0.1,0.7C343.2,67.5,343.3,67.6,343.5,67.8z"/>
	</g>
	<path class="st0" d="M360.3,63.6v-1.4h-4.9c-0.6,0-1.1,0.1-1.4,0.4c-0.3,0.3-0.4,0.7-0.4,1.2v2.8c0,0.5,0.1,0.9,0.4,1.2
		c0.3,0.3,0.7,0.4,1.4,0.4h4.9V67h-4.7c-0.2,0-0.3,0-0.4-0.1c-0.1-0.1-0.2-0.2-0.2-0.3l0-0.5l0-1.5l0-0.5c0-0.1,0.1-0.2,0.2-0.3
		c0.1-0.1,0.2-0.1,0.4-0.1H360.3z"/>
</g>
</svg>
